<svg xmlns="http://www.w3.org/2000/svg" xmlns:xlink="http://www.w3.org/1999/xlink" contentStyleType="text/css" height="1197px" preserveAspectRatio="none" style="width:1223px;height:1197px;;" version="1.1" viewBox="0 0 1223 1197" width="1223px" zoomAndPan="magnify"><defs></defs><g><g class="entity" id="entity_EquipmentSlot"><rect fill="#2C2C2C" height="162.0781" rx="7.5" ry="7.5" style="stroke:#555555;stroke-width:0.5;" width="134.8262" x="435.5" y="1028"></rect><ellipse cx="450.5" cy="1044" fill="#EB937F" rx="11" ry="11" style="stroke:#181818;stroke-width:1;"></ellipse><path d="M454.6094,1050 L446.8906,1050 L446.8906,1037.6094 L454.6094,1037.6094 L454.6094,1039.7656 L449.3438,1039.7656 L449.3438,1042.4375 L454.1094,1042.4375 L454.1094,1044.5938 L449.3438,1044.5938 L449.3438,1047.8438 L454.6094,1047.8438 L454.6094,1050 Z " fill="#000000"></path><text fill="#DDDDDD" font-family="sans-serif" font-size="14" lengthAdjust="spacing" textLength="102.8262" x="464.5" y="1048.8467">EquipmentSlot</text><line style="stroke:#555555;stroke-width:0.5;" x1="436.5" x2="569.3262" y1="1060" y2="1060"></line><text fill="#DDDDDD" font-family="sans-serif" font-size="14" lengthAdjust="spacing" textLength="39.7305" x="441.5" y="1076.9951">HEAD</text><text fill="#DDDDDD" font-family="sans-serif" font-size="14" lengthAdjust="spacing" textLength="46.5869" x="441.5" y="1093.292">CHEST</text><text fill="#DDDDDD" font-family="sans-serif" font-size="14" lengthAdjust="spacing" textLength="36.3809" x="441.5" y="1109.5889">LEGS</text><text fill="#DDDDDD" font-family="sans-serif" font-size="14" lengthAdjust="spacing" textLength="34.2959" x="441.5" y="1125.8857">FEET</text><text fill="#DDDDDD" font-family="sans-serif" font-size="14" lengthAdjust="spacing" textLength="50.2441" x="441.5" y="1142.1826">HANDS</text><text fill="#DDDDDD" font-family="sans-serif" font-size="14" lengthAdjust="spacing" textLength="62.2002" x="441.5" y="1158.4795">WEAPON</text><text fill="#DDDDDD" font-family="sans-serif" font-size="14" lengthAdjust="spacing" textLength="50.9688" x="441.5" y="1174.7764">SHIELD</text><line style="stroke:#555555;stroke-width:0.5;" x1="436.5" x2="569.3262" y1="1182.0781" y2="1182.0781"></line></g><g class="entity" id="entity_Player"><rect fill="#2C2C2C" height="325.0469" rx="7.5" ry="7.5" style="stroke:#555555;stroke-width:0.5;" width="548.4639" x="287" y="7"></rect><ellipse cx="535.1992" cy="23" fill="#ADD1B2" rx="11" ry="11" style="stroke:#181818;stroke-width:1;"></ellipse><path d="M538.168,28.6406 Q537.5898,28.9375 536.9492,29.0781 Q536.3086,29.2344 535.6055,29.2344 Q533.1055,29.2344 531.7773,27.5938 Q530.4648,25.9375 530.4648,22.8125 Q530.4648,19.6875 531.7773,18.0313 Q533.1055,16.375 535.6055,16.375 Q536.3086,16.375 536.9492,16.5313 Q537.6055,16.6875 538.168,16.9844 L538.168,19.7031 Q537.543,19.125 536.9492,18.8594 Q536.3555,18.5781 535.7305,18.5781 Q534.3867,18.5781 533.6992,19.6563 Q533.0117,20.7188 533.0117,22.8125 Q533.0117,24.9063 533.6992,25.9844 Q534.3867,27.0469 535.7305,27.0469 Q536.3555,27.0469 536.9492,26.7813 Q537.543,26.5 538.168,25.9219 L538.168,28.6406 Z " fill="#000000"></path><text fill="#DDDDDD" font-family="sans-serif" font-size="14" lengthAdjust="spacing" textLength="43.5654" x="555.6992" y="27.8467">Player</text><line style="stroke:#555555;stroke-width:0.5;" x1="288" x2="834.4639" y1="39" y2="39"></line><ellipse cx="298" cy="52.6484" fill="none" rx="3" ry="3" style="stroke:#038048;stroke-width:1;"></ellipse><text fill="#DDDDDD" font-family="sans-serif" font-size="14" lengthAdjust="spacing" textLength="67.4092" x="307" y="55.9951">name: str</text><ellipse cx="298" cy="68.9453" fill="none" rx="3" ry="3" style="stroke:#038048;stroke-width:1;"></ellipse><text fill="#DDDDDD" font-family="sans-serif" font-size="14" lengthAdjust="spacing" textLength="60.71" x="307" y="72.292">level: int</text><ellipse cx="298" cy="85.2422" fill="none" rx="3" ry="3" style="stroke:#038048;stroke-width:1;"></ellipse><text fill="#DDDDDD" font-family="sans-serif" font-size="14" lengthAdjust="spacing" textLength="45.1787" x="307" y="88.5889">hp: int</text><ellipse cx="298" cy="101.5391" fill="none" rx="3" ry="3" style="stroke:#038048;stroke-width:1;"></ellipse><text fill="#DDDDDD" font-family="sans-serif" font-size="14" lengthAdjust="spacing" textLength="82.6807" x="307" y="104.8857">max_hp: int</text><ellipse cx="298" cy="117.8359" fill="none" rx="3" ry="3" style="stroke:#038048;stroke-width:1;"></ellipse><text fill="#DDDDDD" font-family="sans-serif" font-size="14" lengthAdjust="spacing" textLength="71.3604" x="307" y="121.1826">attack: int</text><ellipse cx="298" cy="134.1328" fill="none" rx="3" ry="3" style="stroke:#038048;stroke-width:1;"></ellipse><text fill="#DDDDDD" font-family="sans-serif" font-size="14" lengthAdjust="spacing" textLength="83.2412" x="307" y="137.4795">defense: int</text><ellipse cx="298" cy="150.4297" fill="none" rx="3" ry="3" style="stroke:#038048;stroke-width:1;"></ellipse><text fill="#DDDDDD" font-family="sans-serif" font-size="14" lengthAdjust="spacing" textLength="142.666" x="307" y="153.7764">inventory: Inventory</text><ellipse cx="298" cy="166.7266" fill="none" rx="3" ry="3" style="stroke:#038048;stroke-width:1;"></ellipse><text fill="#DDDDDD" font-family="sans-serif" font-size="14" lengthAdjust="spacing" textLength="347.1289" x="307" y="170.0732">equipped_items: Dict[EquipmentSlot, Equipment]</text><ellipse cx="298" cy="183.0234" fill="none" rx="3" ry="3" style="stroke:#038048;stroke-width:1;"></ellipse><text fill="#DDDDDD" font-family="sans-serif" font-size="14" lengthAdjust="spacing" textLength="182.1846" x="307" y="186.3701">active_effects: List[Effect]</text><ellipse cx="298" cy="199.3203" fill="none" rx="3" ry="3" style="stroke:#038048;stroke-width:1;"></ellipse><text fill="#DDDDDD" font-family="sans-serif" font-size="14" lengthAdjust="spacing" textLength="241.1172" x="307" y="202.667">photo: PIL.Image  &#39;Foto do jogador</text><ellipse cx="298" cy="215.6172" fill="none" rx="3" ry="3" style="stroke:#038048;stroke-width:1;"></ellipse><text fill="#DDDDDD" font-family="sans-serif" font-size="14" lengthAdjust="spacing" textLength="522.4639" x="307" y="218.9639">backstory: Document  &#39;Arquivo do documento com a backstory do jogador</text><line style="stroke:#555555;stroke-width:0.5;" x1="288" x2="834.4639" y1="226.2656" y2="226.2656"></line><ellipse cx="298" cy="239.9141" fill="#84BE84" rx="3" ry="3" style="stroke:#038048;stroke-width:1;"></ellipse><text fill="#DDDDDD" font-family="sans-serif" font-size="14" lengthAdjust="spacing" textLength="215.6533" x="307" y="243.2607">use_item(item_id: str) -&gt; None</text><ellipse cx="298" cy="256.2109" fill="#84BE84" rx="3" ry="3" style="stroke:#038048;stroke-width:1;"></ellipse><text fill="#DDDDDD" font-family="sans-serif" font-size="14" lengthAdjust="spacing" textLength="230.0225" x="307" y="259.5576">equip_item(item_id: str) -&gt; None</text><ellipse cx="298" cy="272.5078" fill="#84BE84" rx="3" ry="3" style="stroke:#038048;stroke-width:1;"></ellipse><text fill="#DDDDDD" font-family="sans-serif" font-size="14" lengthAdjust="spacing" textLength="305.8877" x="307" y="275.8545">unequip_item(slot: EquipmentSlot) -&gt; None</text><ellipse cx="298" cy="288.8047" fill="#84BE84" rx="3" ry="3" style="stroke:#038048;stroke-width:1;"></ellipse><text fill="#DDDDDD" font-family="sans-serif" font-size="14" lengthAdjust="spacing" textLength="208.9678" x="307" y="292.1514">gain_xp(amount: int) -&gt; None</text><ellipse cx="298" cy="305.1016" fill="#84BE84" rx="3" ry="3" style="stroke:#038048;stroke-width:1;"></ellipse><text fill="#DDDDDD" font-family="sans-serif" font-size="14" lengthAdjust="spacing" textLength="248.8691" x="307" y="308.4482">apply_effect(effect: Effect) -&gt; None</text><ellipse cx="298" cy="321.3984" fill="#84BE84" rx="3" ry="3" style="stroke:#038048;stroke-width:1;"></ellipse><text fill="#DDDDDD" font-family="sans-serif" font-size="14" lengthAdjust="spacing" textLength="263.8125" x="307" y="324.7451">remove_effect(effect: Effect) -&gt; None</text></g><g class="entity" id="entity_Inventory"><rect fill="#2C2C2C" height="129.4844" rx="7.5" ry="7.5" style="stroke:#555555;stroke-width:0.5;" width="270.3438" x="230" y="393"></rect><ellipse cx="327.4873" cy="409" fill="#ADD1B2" rx="11" ry="11" style="stroke:#181818;stroke-width:1;"></ellipse><path d="M330.4561,414.6406 Q329.8779,414.9375 329.2373,415.0781 Q328.5967,415.2344 327.8936,415.2344 Q325.3936,415.2344 324.0654,413.5938 Q322.7529,411.9375 322.7529,408.8125 Q322.7529,405.6875 324.0654,404.0313 Q325.3936,402.375 327.8936,402.375 Q328.5967,402.375 329.2373,402.5313 Q329.8936,402.6875 330.4561,402.9844 L330.4561,405.7031 Q329.8311,405.125 329.2373,404.8594 Q328.6436,404.5781 328.0186,404.5781 Q326.6748,404.5781 325.9873,405.6563 Q325.2998,406.7188 325.2998,408.8125 Q325.2998,410.9063 325.9873,411.9844 Q326.6748,413.0469 328.0186,413.0469 Q328.6436,413.0469 329.2373,412.7813 Q329.8311,412.5 330.4561,411.9219 L330.4561,414.6406 Z " fill="#000000"></path><text fill="#DDDDDD" font-family="sans-serif" font-size="14" lengthAdjust="spacing" textLength="66.8691" x="347.9873" y="413.8467">Inventory</text><line style="stroke:#555555;stroke-width:0.5;" x1="231" x2="499.3438" y1="425" y2="425"></line><ellipse cx="241" cy="438.6484" fill="none" rx="3" ry="3" style="stroke:#038048;stroke-width:1;"></ellipse><text fill="#DDDDDD" font-family="sans-serif" font-size="14" lengthAdjust="spacing" textLength="115.3564" x="250" y="441.9951">items: List[Item]</text><ellipse cx="241" cy="454.9453" fill="none" rx="3" ry="3" style="stroke:#038048;stroke-width:1;"></ellipse><text fill="#DDDDDD" font-family="sans-serif" font-size="14" lengthAdjust="spacing" textLength="124.0244" x="250" y="458.292">max_capacity: int</text><line style="stroke:#555555;stroke-width:0.5;" x1="231" x2="499.3438" y1="465.5938" y2="465.5938"></line><ellipse cx="241" cy="479.2422" fill="#84BE84" rx="3" ry="3" style="stroke:#038048;stroke-width:1;"></ellipse><text fill="#DDDDDD" font-family="sans-serif" font-size="14" lengthAdjust="spacing" textLength="204.1621" x="250" y="482.5889">add_item(item: Item) -&gt; bool</text><ellipse cx="241" cy="495.5391" fill="#84BE84" rx="3" ry="3" style="stroke:#038048;stroke-width:1;"></ellipse><text fill="#DDDDDD" font-family="sans-serif" font-size="14" lengthAdjust="spacing" textLength="244.3438" x="250" y="498.8857">remove_item(item_id: str) -&gt; None</text><ellipse cx="241" cy="511.8359" fill="#84BE84" rx="3" ry="3" style="stroke:#038048;stroke-width:1;"></ellipse><text fill="#DDDDDD" font-family="sans-serif" font-size="14" lengthAdjust="spacing" textLength="172.7852" x="250" y="515.1826">get_items() -&gt; List[Item]</text></g><g class="entity" id="entity_Effect"><rect fill="#2C2C2C" height="113.1875" rx="7.5" ry="7.5" style="stroke:#555555;stroke-width:0.5;" width="248.1475" x="72" y="846"></rect><ellipse cx="171.5723" cy="862" fill="#A9DCDF" rx="11" ry="11" style="stroke:#181818;stroke-width:1;"></ellipse><path d="M171.6816,857.3438 L170.5254,862.4219 L172.8535,862.4219 L171.6816,857.3438 Z M170.1973,855.1094 L173.1816,855.1094 L176.541,867.5 L174.0879,867.5 L173.3223,864.4375 L170.041,864.4375 L169.291,867.5 L166.8535,867.5 L170.1973,855.1094 Z " fill="#000000"></path><text fill="#DDDDDD" font-family="sans-serif" font-size="14" font-style="italic" lengthAdjust="spacing" textLength="40.5029" x="192.0723" y="866.8467">Effect</text><line style="stroke:#555555;stroke-width:0.5;" x1="73" x2="319.1475" y1="878" y2="878"></line><ellipse cx="83" cy="891.6484" fill="none" rx="3" ry="3" style="stroke:#038048;stroke-width:1;"></ellipse><text fill="#DDDDDD" font-family="sans-serif" font-size="14" lengthAdjust="spacing" textLength="106.251" x="92" y="894.9951">effect_type: str</text><ellipse cx="83" cy="907.9453" fill="none" rx="3" ry="3" style="stroke:#038048;stroke-width:1;"></ellipse><text fill="#DDDDDD" font-family="sans-serif" font-size="14" lengthAdjust="spacing" textLength="65.6592" x="92" y="911.292">value: int</text><line style="stroke:#555555;stroke-width:0.5;" x1="73" x2="319.1475" y1="918.5938" y2="918.5938"></line><ellipse cx="83" cy="932.2422" fill="#84BE84" rx="3" ry="3" style="stroke:#038048;stroke-width:1;"></ellipse><text fill="#DDDDDD" font-family="sans-serif" font-size="14" lengthAdjust="spacing" textLength="207.2041" x="92" y="935.5889">apply(target: Player) -&gt; None</text><ellipse cx="83" cy="948.5391" fill="#84BE84" rx="3" ry="3" style="stroke:#038048;stroke-width:1;"></ellipse><text fill="#DDDDDD" font-family="sans-serif" font-size="14" lengthAdjust="spacing" textLength="222.1475" x="92" y="951.8857">remove(target: Player) -&gt; None</text></g><g class="entity" id="entity_ConsumableEffect"><rect fill="#2C2C2C" height="48" rx="7.5" ry="7.5" style="stroke:#555555;stroke-width:0.5;" width="159.4902" x="190.5" y="1085"></rect><ellipse cx="205.5" cy="1101" fill="#ADD1B2" rx="11" ry="11" style="stroke:#181818;stroke-width:1;"></ellipse><path d="M208.4688,1106.6406 Q207.8906,1106.9375 207.25,1107.0781 Q206.6094,1107.2344 205.9063,1107.2344 Q203.4063,1107.2344 202.0781,1105.5938 Q200.7656,1103.9375 200.7656,1100.8125 Q200.7656,1097.6875 202.0781,1096.0313 Q203.4063,1094.375 205.9063,1094.375 Q206.6094,1094.375 207.25,1094.5313 Q207.9063,1094.6875 208.4688,1094.9844 L208.4688,1097.7031 Q207.8438,1097.125 207.25,1096.8594 Q206.6563,1096.5781 206.0313,1096.5781 Q204.6875,1096.5781 204,1097.6563 Q203.3125,1098.7188 203.3125,1100.8125 Q203.3125,1102.9063 204,1103.9844 Q204.6875,1105.0469 206.0313,1105.0469 Q206.6563,1105.0469 207.25,1104.7813 Q207.8438,1104.5 208.4688,1103.9219 L208.4688,1106.6406 Z " fill="#000000"></path><text fill="#DDDDDD" font-family="sans-serif" font-size="14" lengthAdjust="spacing" textLength="127.4902" x="219.5" y="1105.8467">ConsumableEffect</text><line style="stroke:#555555;stroke-width:0.5;" x1="191.5" x2="348.9902" y1="1117" y2="1117"></line><line style="stroke:#555555;stroke-width:0.5;" x1="191.5" x2="348.9902" y1="1125" y2="1125"></line></g><g class="entity" id="entity_EquipmentEffect"><rect fill="#2C2C2C" height="48" rx="7.5" ry="7.5" style="stroke:#555555;stroke-width:0.5;" width="148.498" x="7" y="1085"></rect><ellipse cx="22" cy="1101" fill="#ADD1B2" rx="11" ry="11" style="stroke:#181818;stroke-width:1;"></ellipse><path d="M24.9688,1106.6406 Q24.3906,1106.9375 23.75,1107.0781 Q23.1094,1107.2344 22.4063,1107.2344 Q19.9063,1107.2344 18.5781,1105.5938 Q17.2656,1103.9375 17.2656,1100.8125 Q17.2656,1097.6875 18.5781,1096.0313 Q19.9063,1094.375 22.4063,1094.375 Q23.1094,1094.375 23.75,1094.5313 Q24.4063,1094.6875 24.9688,1094.9844 L24.9688,1097.7031 Q24.3438,1097.125 23.75,1096.8594 Q23.1563,1096.5781 22.5313,1096.5781 Q21.1875,1096.5781 20.5,1097.6563 Q19.8125,1098.7188 19.8125,1100.8125 Q19.8125,1102.9063 20.5,1103.9844 Q21.1875,1105.0469 22.5313,1105.0469 Q23.1563,1105.0469 23.75,1104.7813 Q24.3438,1104.5 24.9688,1103.9219 L24.9688,1106.6406 Z " fill="#000000"></path><text fill="#DDDDDD" font-family="sans-serif" font-size="14" lengthAdjust="spacing" textLength="116.498" x="36" y="1105.8467">EquipmentEffect</text><line style="stroke:#555555;stroke-width:0.5;" x1="8" x2="154.498" y1="1117" y2="1117"></line><line style="stroke:#555555;stroke-width:0.5;" x1="8" x2="154.498" y1="1125" y2="1125"></line></g><g class="entity" id="entity_Item"><rect fill="#2C2C2C" height="178.375" rx="7.5" ry="7.5" style="stroke:#555555;stroke-width:0.5;" width="302.4316" x="206" y="599"></rect><ellipse cx="337.0313" cy="615" fill="#ADD1B2" rx="11" ry="11" style="stroke:#181818;stroke-width:1;"></ellipse><path d="M340,620.6406 Q339.4219,620.9375 338.7813,621.0781 Q338.1406,621.2344 337.4375,621.2344 Q334.9375,621.2344 333.6094,619.5938 Q332.2969,617.9375 332.2969,614.8125 Q332.2969,611.6875 333.6094,610.0313 Q334.9375,608.375 337.4375,608.375 Q338.1406,608.375 338.7813,608.5313 Q339.4375,608.6875 340,608.9844 L340,611.7031 Q339.375,611.125 338.7813,610.8594 Q338.1875,610.5781 337.5625,610.5781 Q336.2188,610.5781 335.5313,611.6563 Q334.8438,612.7188 334.8438,614.8125 Q334.8438,616.9063 335.5313,617.9844 Q336.2188,619.0469 337.5625,619.0469 Q338.1875,619.0469 338.7813,618.7813 Q339.375,618.5 340,617.9219 L340,620.6406 Z " fill="#000000"></path><text fill="#DDDDDD" font-family="sans-serif" font-size="14" lengthAdjust="spacing" textLength="31.8691" x="357.5313" y="619.8467">Item</text><line style="stroke:#555555;stroke-width:0.5;" x1="207" x2="507.4316" y1="631" y2="631"></line><ellipse cx="217" cy="644.6484" fill="none" rx="3" ry="3" style="stroke:#038048;stroke-width:1;"></ellipse><text fill="#DDDDDD" font-family="sans-serif" font-size="14" lengthAdjust="spacing" textLength="79.1123" x="226" y="647.9951">item_id: str</text><ellipse cx="217" cy="660.9453" fill="none" rx="3" ry="3" style="stroke:#038048;stroke-width:1;"></ellipse><text fill="#DDDDDD" font-family="sans-serif" font-size="14" lengthAdjust="spacing" textLength="67.4092" x="226" y="664.292">name: str</text><ellipse cx="217" cy="677.2422" fill="none" rx="3" ry="3" style="stroke:#038048;stroke-width:1;"></ellipse><text fill="#DDDDDD" font-family="sans-serif" font-size="14" lengthAdjust="spacing" textLength="58.9805" x="226" y="680.5889">type: str</text><ellipse cx="217" cy="693.5391" fill="none" rx="3" ry="3" style="stroke:#038048;stroke-width:1;"></ellipse><text fill="#DDDDDD" font-family="sans-serif" font-size="14" lengthAdjust="spacing" textLength="93.8438" x="226" y="696.8857">durability: int</text><ellipse cx="217" cy="709.8359" fill="none" rx="3" ry="3" style="stroke:#038048;stroke-width:1;"></ellipse><text fill="#DDDDDD" font-family="sans-serif" font-size="14" lengthAdjust="spacing" textLength="132.6309" x="226" y="713.1826">effects: List[Effect]</text><ellipse cx="217" cy="726.1328" fill="none" rx="3" ry="3" style="stroke:#038048;stroke-width:1;"></ellipse><text fill="#DDDDDD" font-family="sans-serif" font-size="14" lengthAdjust="spacing" textLength="249.6553" x="226" y="729.4795">image: PIL.Image  &#39;Imagem do item</text><line style="stroke:#555555;stroke-width:0.5;" x1="207" x2="507.4316" y1="736.7813" y2="736.7813"></line><ellipse cx="217" cy="750.4297" fill="#84BE84" rx="3" ry="3" style="stroke:#038048;stroke-width:1;"></ellipse><text fill="#DDDDDD" font-family="sans-serif" font-size="14" lengthAdjust="spacing" textLength="193.457" x="226" y="753.7764">use(target: Player) -&gt; None</text><ellipse cx="217" cy="766.7266" fill="#84BE84" rx="3" ry="3" style="stroke:#038048;stroke-width:1;"></ellipse><text fill="#DDDDDD" font-family="sans-serif" font-size="14" lengthAdjust="spacing" textLength="276.4316" x="226" y="770.0732">reduce_durability(amount: int) -&gt; None</text></g><g class="entity" id="entity_Equipment"><rect fill="#2C2C2C" height="96.8906" rx="7.5" ry="7.5" style="stroke:#555555;stroke-width:0.5;" width="251.5723" x="377" y="854"></rect><ellipse cx="460.5386" cy="870" fill="#ADD1B2" rx="11" ry="11" style="stroke:#181818;stroke-width:1;"></ellipse><path d="M463.5073,875.6406 Q462.9292,875.9375 462.2886,876.0781 Q461.6479,876.2344 460.9448,876.2344 Q458.4448,876.2344 457.1167,874.5938 Q455.8042,872.9375 455.8042,869.8125 Q455.8042,866.6875 457.1167,865.0313 Q458.4448,863.375 460.9448,863.375 Q461.6479,863.375 462.2886,863.5313 Q462.9448,863.6875 463.5073,863.9844 L463.5073,866.7031 Q462.8823,866.125 462.2886,865.8594 Q461.6948,865.5781 461.0698,865.5781 Q459.7261,865.5781 459.0386,866.6563 Q458.3511,867.7188 458.3511,869.8125 Q458.3511,871.9063 459.0386,872.9844 Q459.7261,874.0469 461.0698,874.0469 Q461.6948,874.0469 462.2886,873.7813 Q462.8823,873.5 463.5073,872.9219 L463.5073,875.6406 Z " fill="#000000"></path><text fill="#DDDDDD" font-family="sans-serif" font-size="14" lengthAdjust="spacing" textLength="75.9951" x="481.0386" y="874.8467">Equipment</text><line style="stroke:#555555;stroke-width:0.5;" x1="378" x2="627.5723" y1="886" y2="886"></line><ellipse cx="388" cy="899.6484" fill="none" rx="3" ry="3" style="stroke:#038048;stroke-width:1;"></ellipse><text fill="#DDDDDD" font-family="sans-serif" font-size="14" lengthAdjust="spacing" textLength="137.2314" x="397" y="902.9951">slot: EquipmentSlot</text><line style="stroke:#555555;stroke-width:0.5;" x1="378" x2="627.5723" y1="910.2969" y2="910.2969"></line><ellipse cx="388" cy="923.9453" fill="#84BE84" rx="3" ry="3" style="stroke:#038048;stroke-width:1;"></ellipse><text fill="#DDDDDD" font-family="sans-serif" font-size="14" lengthAdjust="spacing" textLength="207.8262" x="397" y="927.292">equip(target: Player) -&gt; None</text><ellipse cx="388" cy="940.2422" fill="#84BE84" rx="3" ry="3" style="stroke:#038048;stroke-width:1;"></ellipse><text fill="#DDDDDD" font-family="sans-serif" font-size="14" lengthAdjust="spacing" textLength="225.5723" x="397" y="943.5889">unequip(target: Player) -&gt; None</text></g><g class="entity" id="entity_QuestObjective"><rect fill="#2C2C2C" height="162.0781" rx="7.5" ry="7.5" style="stroke:#555555;stroke-width:0.5;" width="538.4971" x="678" y="1028"></rect><ellipse cx="889.1621" cy="1044" fill="#ADD1B2" rx="11" ry="11" style="stroke:#181818;stroke-width:1;"></ellipse><path d="M892.1309,1049.6406 Q891.5527,1049.9375 890.9121,1050.0781 Q890.2715,1050.2344 889.5684,1050.2344 Q887.0684,1050.2344 885.7402,1048.5938 Q884.4277,1046.9375 884.4277,1043.8125 Q884.4277,1040.6875 885.7402,1039.0313 Q887.0684,1037.375 889.5684,1037.375 Q890.2715,1037.375 890.9121,1037.5313 Q891.5684,1037.6875 892.1309,1037.9844 L892.1309,1040.7031 Q891.5059,1040.125 890.9121,1039.8594 Q890.3184,1039.5781 889.6934,1039.5781 Q888.3496,1039.5781 887.6621,1040.6563 Q886.9746,1041.7188 886.9746,1043.8125 Q886.9746,1045.9063 887.6621,1046.9844 Q888.3496,1048.0469 889.6934,1048.0469 Q890.3184,1048.0469 890.9121,1047.7813 Q891.5059,1047.5 892.1309,1046.9219 L892.1309,1049.6406 Z " fill="#000000"></path><text fill="#DDDDDD" font-family="sans-serif" font-size="14" lengthAdjust="spacing" textLength="107.6729" x="909.6621" y="1048.8467">QuestObjective</text><line style="stroke:#555555;stroke-width:0.5;" x1="679" x2="1215.4971" y1="1060" y2="1060"></line><ellipse cx="689" cy="1073.6484" fill="none" rx="3" ry="3" style="stroke:#038048;stroke-width:1;"></ellipse><text fill="#DDDDDD" font-family="sans-serif" font-size="14" lengthAdjust="spacing" textLength="105.5469" x="698" y="1076.9951">description: str</text><ellipse cx="689" cy="1089.9453" fill="none" rx="3" ry="3" style="stroke:#038048;stroke-width:1;"></ellipse><text fill="#DDDDDD" font-family="sans-serif" font-size="14" lengthAdjust="spacing" textLength="108.7939" x="698" y="1093.292">target_type: str</text><ellipse cx="689" cy="1106.2422" fill="none" rx="3" ry="3" style="stroke:#038048;stroke-width:1;"></ellipse><text fill="#DDDDDD" font-family="sans-serif" font-size="14" lengthAdjust="spacing" textLength="90.2959" x="698" y="1109.5889">target_id: str</text><ellipse cx="689" cy="1122.5391" fill="none" rx="3" ry="3" style="stroke:#038048;stroke-width:1;"></ellipse><text fill="#DDDDDD" font-family="sans-serif" font-size="14" lengthAdjust="spacing" textLength="147.7109" x="698" y="1125.8857">required_amount: int</text><ellipse cx="689" cy="1138.8359" fill="none" rx="3" ry="3" style="stroke:#038048;stroke-width:1;"></ellipse><text fill="#DDDDDD" font-family="sans-serif" font-size="14" lengthAdjust="spacing" textLength="139.4941" x="698" y="1142.1826">current_amount: int</text><line style="stroke:#555555;stroke-width:0.5;" x1="679" x2="1215.4971" y1="1149.4844" y2="1149.4844"></line><ellipse cx="689" cy="1163.1328" fill="#84BE84" rx="3" ry="3" style="stroke:#038048;stroke-width:1;"></ellipse><text fill="#DDDDDD" font-family="sans-serif" font-size="14" lengthAdjust="spacing" textLength="512.4971" x="698" y="1166.4795">update_progress(event_type: str, event_id: str, amount: int &#61; 1) -&gt; None</text><ellipse cx="689" cy="1179.4297" fill="#84BE84" rx="3" ry="3" style="stroke:#038048;stroke-width:1;"></ellipse><text fill="#DDDDDD" font-family="sans-serif" font-size="14" lengthAdjust="spacing" textLength="150.0898" x="698" y="1182.7764">is_complete() -&gt; bool</text></g><g class="entity" id="entity_Quest"><rect fill="#2C2C2C" height="129.4844" rx="7.5" ry="7.5" style="stroke:#555555;stroke-width:0.5;" width="272.832" x="675.5" y="838"></rect><ellipse cx="787.0215" cy="854" fill="#ADD1B2" rx="11" ry="11" style="stroke:#181818;stroke-width:1;"></ellipse><path d="M789.9902,859.6406 Q789.4121,859.9375 788.7715,860.0781 Q788.1309,860.2344 787.4277,860.2344 Q784.9277,860.2344 783.5996,858.5938 Q782.2871,856.9375 782.2871,853.8125 Q782.2871,850.6875 783.5996,849.0313 Q784.9277,847.375 787.4277,847.375 Q788.1309,847.375 788.7715,847.5313 Q789.4277,847.6875 789.9902,847.9844 L789.9902,850.7031 Q789.3652,850.125 788.7715,849.8594 Q788.1777,849.5781 787.5527,849.5781 Q786.209,849.5781 785.5215,850.6563 Q784.834,851.7188 784.834,853.8125 Q784.834,855.9063 785.5215,856.9844 Q786.209,858.0469 787.5527,858.0469 Q788.1777,858.0469 788.7715,857.7813 Q789.3652,857.5 789.9902,856.9219 L789.9902,859.6406 Z " fill="#000000"></path><text fill="#DDDDDD" font-family="sans-serif" font-size="14" lengthAdjust="spacing" textLength="41.2891" x="807.5215" y="858.8467">Quest</text><line style="stroke:#555555;stroke-width:0.5;" x1="676.5" x2="947.332" y1="870" y2="870"></line><ellipse cx="686.5" cy="883.6484" fill="none" rx="3" ry="3" style="stroke:#038048;stroke-width:1;"></ellipse><text fill="#DDDDDD" font-family="sans-serif" font-size="14" lengthAdjust="spacing" textLength="86.6387" x="695.5" y="886.9951">quest_id: str</text><ellipse cx="686.5" cy="899.9453" fill="none" rx="3" ry="3" style="stroke:#038048;stroke-width:1;"></ellipse><text fill="#DDDDDD" font-family="sans-serif" font-size="14" lengthAdjust="spacing" textLength="105.5469" x="695.5" y="903.292">description: str</text><ellipse cx="686.5" cy="916.2422" fill="none" rx="3" ry="3" style="stroke:#038048;stroke-width:1;"></ellipse><text fill="#DDDDDD" font-family="sans-serif" font-size="14" lengthAdjust="spacing" textLength="90.0771" x="695.5" y="919.5889">reward: Item</text><ellipse cx="686.5" cy="932.5391" fill="none" rx="3" ry="3" style="stroke:#038048;stroke-width:1;"></ellipse><text fill="#DDDDDD" font-family="sans-serif" font-size="14" lengthAdjust="spacing" textLength="223.46" x="695.5" y="935.8857">objectives: List[QuestObjective]</text><line style="stroke:#555555;stroke-width:0.5;" x1="676.5" x2="947.332" y1="943.1875" y2="943.1875"></line><ellipse cx="686.5" cy="956.8359" fill="#84BE84" rx="3" ry="3" style="stroke:#038048;stroke-width:1;"></ellipse><text fill="#DDDDDD" font-family="sans-serif" font-size="14" lengthAdjust="spacing" textLength="246.832" x="695.5" y="960.1826">is_complete(player: Player) -&gt; bool</text></g><g class="entity" id="entity_QuestStatus"><rect fill="#2C2C2C" height="145.7813" rx="7.5" ry="7.5" style="stroke:#555555;stroke-width:0.5;" width="418.2598" x="674" y="615"></rect><ellipse cx="835.9297" cy="631" fill="#ADD1B2" rx="11" ry="11" style="stroke:#181818;stroke-width:1;"></ellipse><path d="M838.8984,636.6406 Q838.3203,636.9375 837.6797,637.0781 Q837.0391,637.2344 836.3359,637.2344 Q833.8359,637.2344 832.5078,635.5938 Q831.1953,633.9375 831.1953,630.8125 Q831.1953,627.6875 832.5078,626.0313 Q833.8359,624.375 836.3359,624.375 Q837.0391,624.375 837.6797,624.5313 Q838.3359,624.6875 838.8984,624.9844 L838.8984,627.7031 Q838.2734,627.125 837.6797,626.8594 Q837.0859,626.5781 836.4609,626.5781 Q835.1172,626.5781 834.4297,627.6563 Q833.7422,628.7188 833.7422,630.8125 Q833.7422,632.9063 834.4297,633.9844 Q835.1172,635.0469 836.4609,635.0469 Q837.0859,635.0469 837.6797,634.7813 Q838.2734,634.5 838.8984,633.9219 L838.8984,636.6406 Z " fill="#000000"></path><text fill="#DDDDDD" font-family="sans-serif" font-size="14" lengthAdjust="spacing" textLength="85.9004" x="856.4297" y="635.8467">QuestStatus</text><line style="stroke:#555555;stroke-width:0.5;" x1="675" x2="1091.2598" y1="647" y2="647"></line><ellipse cx="685" cy="660.6484" fill="none" rx="3" ry="3" style="stroke:#038048;stroke-width:1;"></ellipse><text fill="#DDDDDD" font-family="sans-serif" font-size="14" lengthAdjust="spacing" textLength="89.6123" x="694" y="663.9951">quest: Quest</text><ellipse cx="685" cy="676.9453" fill="none" rx="3" ry="3" style="stroke:#038048;stroke-width:1;"></ellipse><text fill="#DDDDDD" font-family="sans-serif" font-size="14" lengthAdjust="spacing" textLength="96.7422" x="694" y="680.292">player: Player</text><ellipse cx="685" cy="693.2422" fill="none" rx="3" ry="3" style="stroke:#038048;stroke-width:1;"></ellipse><text fill="#DDDDDD" font-family="sans-serif" font-size="14" lengthAdjust="spacing" textLength="122.6504" x="694" y="696.5889">is_complete: bool</text><ellipse cx="685" cy="709.5391" fill="none" rx="3" ry="3" style="stroke:#038048;stroke-width:1;"></ellipse><text fill="#DDDDDD" font-family="sans-serif" font-size="14" lengthAdjust="spacing" textLength="284.2178" x="694" y="712.8857">objective_progress: List[QuestObjective]</text><line style="stroke:#555555;stroke-width:0.5;" x1="675" x2="1091.2598" y1="720.1875" y2="720.1875"></line><ellipse cx="685" cy="733.8359" fill="#84BE84" rx="3" ry="3" style="stroke:#038048;stroke-width:1;"></ellipse><text fill="#DDDDDD" font-family="sans-serif" font-size="14" lengthAdjust="spacing" textLength="392.2598" x="694" y="737.1826">update_progress(objective_id: str, amount: int) -&gt; None</text><ellipse cx="685" cy="750.1328" fill="#84BE84" rx="3" ry="3" style="stroke:#038048;stroke-width:1;"></ellipse><text fill="#DDDDDD" font-family="sans-serif" font-size="14" lengthAdjust="spacing" textLength="282.2764" x="694" y="753.4795">check_and_update_completion() -&gt; bool</text></g><g class="entity" id="entity_QuestManager"><rect fill="#2C2C2C" height="96.8906" rx="7.5" ry="7.5" style="stroke:#555555;stroke-width:0.5;" width="402.9609" x="742.5" y="409"></rect><ellipse cx="888.4028" cy="425" fill="#ADD1B2" rx="11" ry="11" style="stroke:#181818;stroke-width:1;"></ellipse><path d="M891.3716,430.6406 Q890.7935,430.9375 890.1528,431.0781 Q889.5122,431.2344 888.8091,431.2344 Q886.3091,431.2344 884.981,429.5938 Q883.6685,427.9375 883.6685,424.8125 Q883.6685,421.6875 884.981,420.0313 Q886.3091,418.375 888.8091,418.375 Q889.5122,418.375 890.1528,418.5313 Q890.8091,418.6875 891.3716,418.9844 L891.3716,421.7031 Q890.7466,421.125 890.1528,420.8594 Q889.5591,420.5781 888.9341,420.5781 Q887.5903,420.5781 886.9028,421.6563 Q886.2153,422.7188 886.2153,424.8125 Q886.2153,426.9063 886.9028,427.9844 Q887.5903,429.0469 888.9341,429.0469 Q889.5591,429.0469 890.1528,428.7813 Q890.7466,428.5 891.3716,427.9219 L891.3716,430.6406 Z " fill="#000000"></path><text fill="#DDDDDD" font-family="sans-serif" font-size="14" lengthAdjust="spacing" textLength="102.6553" x="908.9028" y="429.8467">QuestManager</text><line style="stroke:#555555;stroke-width:0.5;" x1="743.5" x2="1144.4609" y1="441" y2="441"></line><ellipse cx="753.5" cy="454.6484" fill="none" rx="3" ry="3" style="stroke:#038048;stroke-width:1;"></ellipse><text fill="#DDDDDD" font-family="sans-serif" font-size="14" lengthAdjust="spacing" textLength="226.4678" x="762.5" y="457.9951">active_quests: List[QuestStatus]</text><line style="stroke:#555555;stroke-width:0.5;" x1="743.5" x2="1144.4609" y1="465.2969" y2="465.2969"></line><ellipse cx="753.5" cy="478.9453" fill="#84BE84" rx="3" ry="3" style="stroke:#038048;stroke-width:1;"></ellipse><text fill="#DDDDDD" font-family="sans-serif" font-size="14" lengthAdjust="spacing" textLength="340.8945" x="762.5" y="482.292">add_quest(quest: Quest, player: Player) -&gt; None</text><ellipse cx="753.5" cy="495.2422" fill="#84BE84" rx="3" ry="3" style="stroke:#038048;stroke-width:1;"></ellipse><text fill="#DDDDDD" font-family="sans-serif" font-size="14" lengthAdjust="spacing" textLength="376.9609" x="762.5" y="498.5889">complete_quest(quest_id: str, player: Player) -&gt; None</text></g><g class="link" id="link_Effect_ConsumableEffect"><path d="M222.2457,976.0356 C237.1857,1017.3156 250.67,1054.57 261.64,1084.89" fill="none" id="Effect-backto-ConsumableEffect" style="stroke:#CCCCCC;stroke-width:1;"></path><polygon fill="none" points="216.12,959.11,216.6038,978.0775,227.8876,973.9937,216.12,959.11" style="stroke:#CCCCCC;stroke-width:1;"></polygon></g><g class="link" id="link_Effect_EquipmentEffect"><path d="M155.9082,974.8 C132.6982,1016.08 111.05,1054.57 94,1084.89" fill="none" id="Effect-backto-EquipmentEffect" style="stroke:#CCCCCC;stroke-width:1;"></path><polygon fill="none" points="164.73,959.11,150.6782,971.8594,161.1382,977.7406,164.73,959.11" style="stroke:#CCCCCC;stroke-width:1;"></polygon></g><g class="link" id="link_Item_Equipment"><path d="M427.8425,792.1062 C445.8625,818.3362 454.72,831.23 470.24,853.83" fill="none" id="Item-backto-Equipment" style="stroke:#CCCCCC;stroke-width:1;"></path><polygon fill="none" points="417.65,777.27,422.8971,795.5037,432.7879,788.7087,417.65,777.27" style="stroke:#CCCCCC;stroke-width:1;"></polygon></g><g class="link" id="link_Player_Inventory"><path d="M443.329,342.2004 C428.699,363.5604 421.23,374.45 408.71,392.72" fill="none" id="Player-backto-Inventory" style="stroke:#CCCCCC;stroke-width:1;"></path><polygon fill="#CCCCCC" points="450.11,332.3,443.4194,334.9899,443.329,342.2004,450.0196,339.5105,450.11,332.3" style="stroke:#CCCCCC;stroke-width:1;"></polygon></g><g class="link" id="link_Inventory_Item"><path d="M362.3512,534.1427 C361.5212,557.9127 360.98,573.35 360.08,598.93" fill="none" id="Inventory-backto-Item" style="stroke:#CCCCCC;stroke-width:1;"></path><polygon fill="#CCCCCC" points="362.77,522.15,358.5631,528.0068,362.3512,534.1427,366.5582,528.2859,362.77,522.15" style="stroke:#CCCCCC;stroke-width:1;"></polygon></g><g class="link" id="link_Item_Effect"><path d="M282.876,786.8368 C265.256,810.1068 253.97,824.98 238.07,845.98" fill="none" id="Item-backto-Effect" style="stroke:#CCCCCC;stroke-width:1;"></path><polygon fill="#CCCCCC" points="290.12,777.27,283.3091,779.6388,282.876,786.8368,289.6869,784.4681,290.12,777.27" style="stroke:#CCCCCC;stroke-width:1;"></polygon></g><g class="link" id="link_Player_Equipment"><path d="M556.0346,344.1514 C551.3846,466.6014 542.67,626.8 525,777 C522,802.51 517.15,830.7 512.76,853.8" fill="none" id="Player-backto-Equipment" style="stroke:#CCCCCC;stroke-width:1;"></path><polygon fill="#CCCCCC" points="556.49,332.16,552.2652,338.0039,556.0346,344.1514,560.2594,338.3075,556.49,332.16" style="stroke:#CCCCCC;stroke-width:1;"></polygon><text fill="#FFFFFF" font-family="sans-serif" font-size="13" lengthAdjust="spacing" textLength="103.4985" x="547" y="565.0669">equipped_items</text></g><g class="link" id="link_Player_Effect"><path d="M277.543,316.952 C248.583,341.352 231.74,361.49 212,393 C122.91,535.22 157.25,746.44 180.88,845.89" fill="none" id="Player-backto-Effect" style="stroke:#CCCCCC;stroke-width:1;"></path><polygon fill="#CCCCCC" points="286.72,309.22,279.5542,310.027,277.543,316.952,284.7088,316.145,286.72,309.22" style="stroke:#CCCCCC;stroke-width:1;"></polygon><text fill="#FFFFFF" font-family="sans-serif" font-size="13" lengthAdjust="spacing" textLength="90.1812" x="160" y="565.0669">active_effects</text></g><g class="link" id="link_Quest_QuestObjective"><path d="M860.5831,977.0933 C873.2831,996.3233 880.77,1007.68 894.09,1027.85" fill="none" id="Quest-backto-QuestObjective" style="stroke:#CCCCCC;stroke-width:1;"></path><polygon fill="#CCCCCC" points="853.97,967.08,853.9388,974.291,860.5831,977.0933,860.6143,969.8823,853.97,967.08" style="stroke:#CCCCCC;stroke-width:1;"></polygon></g><g class="link" id="link_QuestManager_QuestStatus"><path d="M928.1948,517.714 C919.8148,549.104 911.77,579.22 902.31,614.67" fill="none" id="QuestManager-backto-QuestStatus" style="stroke:#CCCCCC;stroke-width:1;"></path><polygon fill="#CCCCCC" points="931.29,506.12,925.8778,510.8853,928.1948,517.714,933.6071,512.9487,931.29,506.12" style="stroke:#CCCCCC;stroke-width:1;"></polygon></g><g class="link" id="link_QuestStatus_Quest"><path d="M855.0584,772.6219 C846.7384,797.5319 841.29,813.84 833.22,838" fill="none" id="QuestStatus-backto-Quest" style="stroke:#CCCCCC;stroke-width:1;"></path><polygon fill="#CCCCCC" points="858.86,761.24,853.1652,765.6638,855.0584,772.6219,860.7532,768.1982,858.86,761.24" style="stroke:#CCCCCC;stroke-width:1;"></polygon></g><g class="link" id="link_QuestStatus_Player"><path d="M795.3944,606.2152 C768.2444,578.8752 747.51,554.89 725,522 C685.07,463.65 650.3,394.03 623.18,332.21" fill="none" id="QuestStatus-backto-Player" style="stroke:#CCCCCC;stroke-width:1;"></path><polygon fill="#CCCCCC" points="803.85,614.73,802.4605,607.654,795.3944,606.2152,796.7839,613.2911,803.85,614.73" style="stroke:#CCCCCC;stroke-width:1;"></polygon></g><g class="link" id="link_Equipment_EquipmentSlot"><path d="M503,963.19 C503,985.97 503,1001.85 503,1027.76" fill="none" id="Equipment-backto-EquipmentSlot" style="stroke:#CCCCCC;stroke-width:1;"></path><polygon fill="#CCCCCC" points="503,951.19,499,957.19,503,963.19,507,957.19,503,951.19" style="stroke:#CCCCCC;stroke-width:1;"></polygon></g><g class="link" id="link_QuestStatus_QuestObjective"><path d="M938.8828,771.6622 C952.3528,795.0822 959.11,811.49 966,838 C982.21,900.42 975.58,973.52 965.94,1027.9" fill="none" id="QuestStatus-backto-QuestObjective" style="stroke:#CCCCCC;stroke-width:1;"></path><polygon fill="#CCCCCC" points="932.9,761.26,932.424,768.4554,938.8828,771.6622,939.3588,764.4668,932.9,761.26" style="stroke:#CCCCCC;stroke-width:1;"></polygon><text fill="#FFFFFF" font-family="sans-serif" font-size="13" lengthAdjust="spacing" textLength="66.1362" x="976" y="907.0669">objectives</text></g><g class="link" id="link_Player_QuestManager"><path d="M777.4,332.1 C814.86,360.06 846.2128,383.4696 875.2128,405.1296" fill="none" id="Player-to-QuestManager" style="stroke:#CCCCCC;stroke-width:1;"></path><polygon fill="#CCCCCC" points="880.02,408.72,875.2029,400.1296,876.014,405.728,870.4156,406.5391,880.02,408.72" style="stroke:#CCCCCC;stroke-width:1;"></polygon></g></g></svg>